
<svg width="39px" height="39px" viewBox="0 0 39 39" version="1.1" xmlns="http://www.w3.org/2000/svg" xmlns:xlink="http://www.w3.org/1999/xlink">
    <g id="Frontend-Test" stroke="none" stroke-width="1" fill="none" fill-rule="evenodd">
        <g id="Frontend-test-1440" transform="translate(-335.000000, -1197.000000)">
            <g id="Footer" transform="translate(0.000000, 1107.000000)">
                <g id="icon-facebook" transform="translate(335.000000, 90.000000)">
                    <path d="M19.5,1.21875 C24.548228,1.21875 29.1185406,3.26494846 32.426796,6.57320396 C35.7350515,9.88145945 37.78125,14.451772 37.78125,19.5 C37.78125,24.548228 35.7350515,29.1185406 32.426796,32.426796 C29.1185406,35.7350515 24.548228,37.78125 19.5,37.78125 C14.451772,37.78125 9.88145945,35.7350515 6.57320396,32.426796 C3.26494846,29.1185406 1.21875,24.548228 1.21875,19.5 C1.21875,14.451772 3.26494846,9.88145945 6.57320396,6.57320396 C9.88145945,3.26494846 14.451772,1.21875 19.5,1.21875 Z" id="back" stroke="#008FFF" stroke-width="2.4375"></path>
                    <path d="M20.5890323,27.9920583 L20.5890323,19.6825563 L22.8809458,19.6825563 L23.1846738,16.8190559 L20.5890323,16.8190559 L20.5929263,15.3858463 C20.5929263,14.6390013 20.6638286,14.2388247 21.7356381,14.2388247 L23.168449,14.2388247 L23.168449,11.375 L20.8762111,11.375 C18.1228646,11.375 17.153758,12.7641058 17.153758,15.1001449 L17.153758,16.8193801 L15.4375,16.8193801 L15.4375,19.6828806 L17.153758,19.6828806 L17.153758,27.9920583 L20.5890323,27.9920583 Z" id="Shape" fill="#008FFF"></path>
                </g>
            </g>
        </g>
    </g>
</svg>