
<svg width="39px" height="39px" viewBox="0 0 39 39" version="1.1" xmlns="http://www.w3.org/2000/svg" xmlns:xlink="http://www.w3.org/1999/xlink">
    <g id="Frontend-Test" stroke="none" stroke-width="1" fill="none" fill-rule="evenodd">
        <g id="Frontend-test-1440" transform="translate(-441.000000, -1197.000000)">
            <g id="Footer" transform="translate(0.000000, 1107.000000)">
                <g id="Social" transform="translate(335.000000, 90.000000)">
                    <g id="icon-youtube" transform="translate(106.000000, 0.000000)">
                        <path d="M19.5,1.21875 C24.548228,1.21875 29.1185406,3.26494846 32.426796,6.57320396 C35.7350515,9.88145945 37.78125,14.451772 37.78125,19.5 C37.78125,24.548228 35.7350515,29.1185406 32.426796,32.426796 C29.1185406,35.7350515 24.548228,37.78125 19.5,37.78125 C14.451772,37.78125 9.88145945,35.7350515 6.57320396,32.426796 C3.26494846,29.1185406 1.21875,24.548228 1.21875,19.5 C1.21875,14.451772 3.26494846,9.88145945 6.57320396,6.57320396 C9.88145945,3.26494846 14.451772,1.21875 19.5,1.21875 Z" id="back" stroke="#008FFF" stroke-width="2.4375"></path>
                        <path d="M19.8896042,13.8130863 C20.4353111,13.8153143 21.9013619,13.8260089 23.4023624,13.8773425 L23.8764917,13.8949416 C24.4285883,13.9171374 24.9727784,13.9453089 25.4647859,13.9810652 C25.7885164,14.0195647 26.4950258,14.0226862 27.1253938,14.6860215 C27.6221258,15.1911969 27.78425,16.3383768 27.78425,16.3383768 L27.78425,16.3383768 L27.7884738,16.3738785 C27.814318,16.5950351 27.95,17.8141398 27.95,19.0328187 L27.95,19.0328187 L27.95,20.2960172 C27.95,21.6434983 27.78425,22.9904592 27.78425,22.9904592 C27.78425,22.9904592 27.6221258,24.137639 27.1253938,24.6428144 C26.4950258,25.3061497 25.7885164,25.3092713 25.4647859,25.348291 C23.426469,25.496424 20.489728,25.5183974 19.8077385,25.5215478 L19.6166359,25.5216122 C19.151095,25.5169412 15.2726364,25.4747622 14.027,25.3545341 C13.6582062,25.2853392 12.8299742,25.3061497 12.1990883,24.6428144 C11.7023562,24.137639 11.54075,22.9904592 11.54075,22.9904592 C11.54075,22.9904592 11.375,21.6434983 11.375,20.2960172 L11.375,20.2960172 L11.375,19.0328187 C11.375,17.8141398 11.510682,16.5950351 11.5365262,16.3738785 L11.54075,16.3383768 C11.54075,16.3383768 11.7023562,15.1911969 12.1990883,14.6860215 C12.8299742,14.0226862 13.5359656,14.0195647 13.8602141,13.9810652 C14.3522216,13.9453089 14.8964117,13.9171374 15.4485083,13.8949416 L15.9226376,13.8773425 C17.4236381,13.8260089 18.8896889,13.8153143 19.4353958,13.8130863 Z M17.9506133,17.1489465 L17.9511313,21.8266309 L22.4289711,19.4958528 L17.9506133,17.1489465 Z" id="Combined-Shape" fill="#008FFF"></path>
                    </g>
                </g>
            </g>
        </g>
    </g>
</svg>